#!OML:ASF F:\VICON\USERDATA\INSTALL\rory3\rory3.ASF
:FULLY-SPECIFIED
:DEGREES
123
root 0.46380855323436393 17.161660803081563 13.330978624379346 10.244057732364556 -2.656729445980111 -2.473206597760246
lfemur -34.8412697154646 7.410735971641036 -19.503563737567195
ltibia 48.33891773136697
lfoot -9.970209810045775 0.2734242621607894
ltoes -9.89508531486929
rfemur -21.87219803826693 -0.8871069958527505 21.14688213225566
rtibia 28.227158158906825
rfoot -12.565819310865251 3.5681445273405203
rtoes 9.681830327093198
lowerback 23.710829905333423 1.944171736616544 -1.3535626379087842
upperback 6.02298474702295 2.3611132877009613 1.3736064490100213
thorax 1.3012953045793374 0.9914703650644352 1.2754976806125309
lowerneck -13.992531338980301 0.22429244422491856 0.48813866155753105
upperneck 23.79856091469737 0.2158387076029974 -0.2460327075609078
head 9.683570728817815 -0.008898229213695263 -0.07108089496013939
lclavicle 3.8814789104428144e-16 -1.4339860618972318e-15
lhumerus -26.81918228309386 -3.047897230819648 79.09159222314312
lradius 28.184334992410186
lwrist 31.084239025647637
lhand -25.285373261813845 -7.5838663496094645
lfingers 7.12502
lthumb 1.4465788802800672 21.90235667075982
rclavicle 3.8759080639274946e-16 -1.4351924079434492e-15
rhumerus -29.578987110598984 -6.230176520721451 -69.91261560123367
rradius 34.5119429610885
rwrist 25.033300655013445
rhand -21.801356932606193 -24.727105486336352
rfingers 7.12502
rthumb 3.2689221483683313 -55.492113186882875
124
root 0.45508822607864746 17.154980649215137 13.16556902829734 10.354456916444978 -2.599871211838299 -2.4840063523926994
lfemur -35.05789053625697 7.345741180254276 -19.50786604775477
ltibia 48.22366419363944
lfoot -9.962314240652843 0.22683162361586184
ltoes -9.873944348553536
rfemur -21.51705542899439 -0.8428008320628384 21.150030357568564
rtibia 27.692378224700196
rfoot -12.47912674131323 3.5271464309381524
rtoes 9.687361210997327
lowerback 24.03511005656345 1.9298726000504498 -1.3336387964069705
upperback 5.9786575914811575 2.3485242899603636 1.4142278921743692
thorax 1.2069541068193033 0.9866327807989934 1.2792476632504948
lowerneck -14.112538602423555 0.21717282588289655 0.4926095107767633
upperneck 23.74263799935151 0.2052920024337549 -0.22911936558340595
head 9.654260120720268 -0.01602177608219496 -0.051569043112847185
lclavicle 3.884284888252437e-16 -1.4336075776703236e-15
lhumerus -25.34507678418426 -3.084552032956302 79.56630944959164
lradius 28.50705329966496
lwrist 31.81757927595116
lhand -25.217144906100312 -7.654880049737914
lfingers 7.12502
lthumb 1.4320449853645825 21.873042385172802
rclavicle 3.8759929127532786e-16 -1.4351803885094837e-15
rhumerus -30.035985198926664 -6.09588403829987 -69.78430950896885
rradius 34.528571953235684
rwrist 24.986615746381336
rhand -21.98425944258508 -24.857883414526476
rfingers 7.12502
rthumb 3.0897159333936646 -55.59831954434613
125
root 0.4478911717144541 17.151799419888878 12.998234379703316 10.432914381742012 -2.5591078433646084 -2.5075189000725926
lfemur -35.313508158309304 7.2932015009096025 -19.490126035877722
ltibia 48.13805797197665
lfoot -9.89797624421786 0.19004628459520134
ltoes -9.813749748835647
rfemur -21.160455666773892 -0.8248744032477294 21.16410587982549
rtibia 27.18994350553966
rfoot -12.307351703644496 3.5613028237143047
rtoes 9.786193606345758
lowerback 24.390680016215356 1.915191193187287 -1.3125354694649198
upperback 5.920827595081513 2.3336239732280175 1.4616098432273201
thorax 1.09394083757643 0.9823311950645333 1.2723232978219112
lowerneck -14.222295960710124 0.20902060211726053 0.4877314412749315
upperneck 23.716997413655257 0.19404199886680784 -0.20813531239589955
head 9.641000413249536 -0.02331961105966951 -0.0317390688610161
lclavicle 3.8854481835066847e-16 -1.433449478651774e-15
lhumerus -23.975628622629866 -3.159606811214668 80.05655223365125
lradius 28.849090001354767
lwrist 32.59491548611731
lhand -25.162448607333367 -7.743982072305488
lfingers 7.12502
lthumb 1.462963063570389 21.860852972966974
rclavicle 3.876151340436954e-16 -1.4351585485333126e-15
rhumerus -30.361948925836888 -5.921868248038538 -69.63900416816628
rradius 34.57856110232872
rwrist 24.86746852376257
rhand -22.205599095072714 -24.997140410507154
rfingers 7.12502
rthumb 2.907267605459646 -55.687708169232984
126
root 0.4405552536804064 17.14524112508004 12.841666238129616 10.503917374327608 -2.5462319491141208 -2.4772897195983044
lfemur -35.58143886591511 7.253938886748729 -19.53543286454423
ltibia 48.035633871678186
lfoot -9.74395398615691 0.1459462300089811
ltoes -9.688378924641935
rfemur -20.818820104364793 -0.8165127480248046 21.13205222024963
rtibia 26.788359373934966
rfoot -12.159252348986016 3.6317665097482013
rtoes 9.922597445652269
lowerback 24.667207362298136 1.904515671716171 -1.3786559477249891
upperback 5.836758940302987 2.320006812265027 1.4961966263730473
thorax 0.9637942186327069 0.9764368238709118 1.2793258729574735
lowerneck -14.336164195626653 0.20537768389524597 0.4770610150340965
upperneck 23.743671338604628 0.18700243884221934 -0.1838166669733113
head 9.6514710731654 -0.029287032795682955 -0.011176874204485071
lclavicle 3.8859202433848466e-16 -1.4333840316957755e-15
lhumerus -22.93039172756925 -3.2938941488016544 80.43557785218468
lradius 29.195292258747475
lwrist 33.36099288729481
lhand -25.10003519123599 -7.839525025134505
lfingers 7.12502
lthumb 1.5236423087537099 21.867261550058014
rclavicle 3.876885420102906e-16 -1.4350547750085225e-15
rhumerus -30.50572104312204 -5.774832692712047 -69.54087356634749
rradius 34.58481954852396
rwrist 24.757236635245985
rhand -22.45097646683213 -25.13044213497221
rfingers 7.12502
rthumb 2.732822166215903 -55.762532784993766
